<svg version="1.1" id="Layer_1" xmlns="http://www.w3.org/2000/svg" xmlns:xlink="http://www.w3.org/1999/xlink" x="0px" y="0px"
	 width="100%" viewBox="0 0 512 512" enable-background="new 0 0 512 512" xml:space="preserve">
<path fill="#000000" opacity="1.000000" stroke="none" 
	d="
M328.000000,513.000000 
	C218.693222,513.000000 109.886436,513.000000 1.039827,513.000000 
	C1.039827,342.401520 1.039827,171.803040 1.039827,1.102281 
	C171.556793,1.102281 342.113647,1.102281 512.835266,1.102281 
	C512.835266,171.666534 512.835266,342.333252 512.835266,513.000000 
	C451.469696,513.000000 389.984833,513.000000 328.000000,513.000000 
M71.047462,382.982056 
	C167.165894,382.988037 263.284332,383.000214 359.402771,382.996155 
	C387.554626,382.994965 415.706451,382.947693 444.698273,382.662170 
	C444.798798,381.509613 444.987183,380.357086 444.987396,379.204529 
	C445.001099,298.412994 445.001434,217.621475 444.986298,136.829941 
	C444.986053,135.383545 444.785278,133.937164 444.670807,132.393005 
	C319.355896,132.393005 194.375961,132.393005 69.254417,132.393005 
	C69.152939,133.918655 69.010376,135.062836 69.010216,136.207047 
	C68.999275,217.165146 68.994446,298.123260 69.046516,379.081329 
	C69.047340,380.361725 69.758530,381.641663 71.047462,382.982056 
z"/>
<path fill="#009B3A" opacity="1.000000" stroke="none" 
	d="
M70.138214,382.921814 
	C69.758530,381.641663 69.047340,380.361725 69.046516,379.081329 
	C68.994446,298.123260 68.999275,217.165146 69.010216,136.207047 
	C69.010376,135.062836 69.152939,133.918655 69.254417,132.393005 
	C194.375961,132.393005 319.355896,132.393005 444.670807,132.393005 
	C444.785278,133.937164 444.986053,135.383545 444.986298,136.829941 
	C445.001434,217.621475 445.001099,298.412994 444.987396,379.204529 
	C444.987183,380.357086 444.798798,381.509613 443.964050,382.545349 
	C441.750488,382.285706 440.271210,382.018036 438.791870,382.017792 
	C317.663239,381.998505 196.534592,381.996124 75.405968,382.038269 
	C73.649948,382.038879 71.894127,382.614532 70.138214,382.921814 
M257.364197,167.268097 
	C256.469666,167.654587 255.502014,167.926514 254.691055,168.443985 
	C209.510132,197.274582 164.340759,226.123322 119.184189,254.992050 
	C118.296211,255.559723 117.573471,256.385864 116.651306,257.199341 
	C117.517471,257.861603 118.016289,258.304260 118.571411,258.658722 
	C163.744293,287.501770 208.944687,316.301971 254.042175,345.262421 
	C256.802094,347.034729 258.411804,346.232819 260.631531,344.812775 
	C305.076904,316.379059 349.553284,287.993774 394.014801,259.585297 
	C395.196106,258.830505 396.281677,257.925873 397.802551,256.802582 
	C350.851654,226.843536 304.426056,197.219681 257.364197,167.268097 
z"/>
<path fill="#00AA55" opacity="1.000000" stroke="none" 
	d="
M70.592834,382.951904 
	C71.894127,382.614532 73.649948,382.038879 75.405968,382.038269 
	C196.534592,381.996124 317.663239,381.998505 438.791870,382.017792 
	C440.271210,382.018036 441.750488,382.285706 443.544067,382.675049 
	C415.706451,382.947693 387.554626,382.994965 359.402771,382.996155 
	C263.284332,383.000214 167.165894,382.988037 70.592834,382.951904 
z"/>
<path fill="#FCDE01" opacity="1.000000" stroke="none" 
	d="
M257.682312,167.431946 
	C304.426056,197.219681 350.851654,226.843536 397.802551,256.802582 
	C396.281677,257.925873 395.196106,258.830505 394.014801,259.585297 
	C349.553284,287.993774 305.076904,316.379059 260.631531,344.812775 
	C258.411804,346.232819 256.802094,347.034729 254.042175,345.262421 
	C208.944687,316.301971 163.744293,287.501770 118.571411,258.658722 
	C118.016289,258.304260 117.517471,257.861603 116.651306,257.199341 
	C117.573471,256.385864 118.296211,255.559723 119.184189,254.992050 
	C164.340759,226.123322 209.510132,197.274582 254.691055,168.443985 
	C255.502014,167.926514 256.469666,167.654587 257.682312,167.431946 
M315.964172,264.117157 
	C317.926239,245.688782 312.662506,229.619949 300.049683,216.050049 
	C271.533539,185.370010 217.929977,194.668228 202.399979,233.341812 
	C201.478348,236.156433 200.556702,238.971069 199.337036,242.508057 
	C192.241150,275.848083 210.413834,306.232697 242.466599,314.620575 
	C272.873810,322.577789 304.243347,304.886444 313.986450,273.761871 
	C314.589752,270.857391 315.193054,267.952881 315.964172,264.117157 
z"/>
<path fill="#032977" opacity="1.000000" stroke="none" 
	d="
M313.726929,274.432190 
	C304.243347,304.886444 272.873810,322.577789 242.466599,314.620575 
	C210.413834,306.232697 192.241150,275.848083 199.931702,242.212067 
	C208.358139,241.226974 216.189926,240.537857 224.323975,239.899567 
	C225.031204,239.915710 225.436172,239.881042 226.278076,239.941528 
	C237.190674,241.576660 247.829697,242.413910 258.107788,244.803574 
	C279.179901,249.702850 297.307892,260.569397 313.726929,274.432190 
z"/>
<path fill="#032976" opacity="1.000000" stroke="none" 
	d="
M202.931824,232.857315 
	C217.929977,194.668228 271.533539,185.370010 300.049683,216.050049 
	C312.662506,229.619949 317.926239,245.688782 315.587006,264.437866 
	C300.708527,252.722687 284.449341,243.889297 266.523315,238.124725 
	C252.474564,233.607010 237.981628,231.848999 223.190826,231.255066 
	C222.639877,231.228271 222.196457,231.283020 221.252930,231.464752 
	C214.812515,232.013611 208.872162,232.435471 202.931824,232.857315 
z"/>
<path fill="#F7F9FB" opacity="1.000000" stroke="none" 
	d="
M223.298325,231.336609 
	C237.981628,231.848999 252.474564,233.607010 266.523315,238.124725 
	C284.449341,243.889297 300.708527,252.722687 315.503113,264.903473 
	C315.193054,267.952881 314.589752,270.857391 313.856689,274.097046 
	C297.307892,260.569397 279.179901,249.702850 258.107788,244.803574 
	C247.829697,242.413910 237.190674,241.576660 226.380432,239.612335 
	C230.251358,234.778671 225.240021,233.594742 223.298325,231.336609 
z"/>
<path fill="#F7F8F9" opacity="1.000000" stroke="none" 
	d="
M202.665894,233.099564 
	C208.872162,232.435471 214.812515,232.013611 221.099365,231.903503 
	C218.793533,236.853180 219.207428,238.079773 224.021713,239.848740 
	C216.189926,240.537857 208.358139,241.226974 200.080719,241.850891 
	C200.556702,238.971069 201.478348,236.156433 202.665894,233.099564 
z"/>
<path fill="#199D4F" opacity="1.000000" stroke="none" 
	d="
M224.323975,239.899567 
	C219.207428,238.079773 218.793533,236.853180 221.599457,231.776520 
	C222.196457,231.283020 222.639877,231.228271 223.190826,231.255066 
	C225.240021,233.594742 230.251358,234.778671 225.943481,239.517166 
	C225.436172,239.881042 225.031204,239.915710 224.323975,239.899567 
z"/>
</svg>